{
	"asset":{
		"generator":"Khronos glTF Blender I/O v4.3.47",
		"version":"2.0"
	},
	"scene":0,
	"scenes":[
		{
			"name":"Scene",
			"nodes":[
				0
			]
		}
	],
	"nodes":[
		{
			"mesh":0,
			"name":"Box004.002",
			"rotation":[
				0,
				-0.7071068286895752,
				0,
				0.7071067094802856
			]
		}
	],
	"meshes":[
		{
			"name":"mesh.001",
			"primitives":[
				{
					"attributes":{
						"POSITION":0,
						"NORMAL":1,
						"TEXCOORD_0":2
					},
					"indices":3
				}
			]
		}
	],
	"accessors":[
		{
			"bufferView":0,
			"componentType":5126,
			"count":46157,
			"max":[
				0.7243807315826416,
				0.7459235787391663,
				0.3171098828315735
			],
			"min":[
				-0.7231810092926025,
				0.009060671553015709,
				-0.4139900505542755
			],
			"type":"VEC3"
		},
		{
			"bufferView":1,
			"componentType":5126,
			"count":46157,
			"type":"VEC3"
		},
		{
			"bufferView":2,
			"componentType":5126,
			"count":46157,
			"type":"VEC2"
		},
		{
			"bufferView":3,
			"componentType":5123,
			"count":248328,
			"type":"SCALAR"
		}
	],
	"bufferViews":[
		{
			"buffer":0,
			"byteLength":553884,
			"byteOffset":0,
			"target":34962
		},
		{
			"buffer":0,
			"byteLength":553884,
			"byteOffset":553884,
			"target":34962
		},
		{
			"buffer":0,
			"byteLength":369256,
			"byteOffset":1107768,
			"target":34962
		},
		{
			"buffer":0,
			"byteLength":496656,
			"byteOffset":1477024,
			"target":34963
		}
	],
	"buffers":[
		{
			"byteLength":1973680,
			"uri":"Sofaa3.bin"
		}
	]
}
