{
	"asset":{
		"generator":"Khronos glTF Blender I/O v4.3.47",
		"version":"2.0"
	},
	"scene":0,
	"scenes":[
		{
			"name":"Scene",
			"nodes":[
				0
			]
		}
	],
	"nodes":[
		{
			"mesh":0,
			"name":"sobc_body",
			"rotation":[
				0,
				-0.7071068286895752,
				0,
				0.7071067094802856
			]
		}
	],
	"meshes":[
		{
			"name":"Mesh.001",
			"primitives":[
				{
					"attributes":{
						"POSITION":0,
						"NORMAL":1,
						"TEXCOORD_0":2
					},
					"indices":3
				}
			]
		}
	],
	"accessors":[
		{
			"bufferView":0,
			"componentType":5126,
			"count":18402,
			"max":[
				1.0363248586654663,
				0.7258333563804626,
				0.4528796374797821
			],
			"min":[
				-1.0363253355026245,
				-3.725290298461914e-09,
				-0.4528796970844269
			],
			"type":"VEC3"
		},
		{
			"bufferView":1,
			"componentType":5126,
			"count":18402,
			"type":"VEC3"
		},
		{
			"bufferView":2,
			"componentType":5126,
			"count":18402,
			"type":"VEC2"
		},
		{
			"bufferView":3,
			"componentType":5123,
			"count":104976,
			"type":"SCALAR"
		}
	],
	"bufferViews":[
		{
			"buffer":0,
			"byteLength":220824,
			"byteOffset":0,
			"target":34962
		},
		{
			"buffer":0,
			"byteLength":220824,
			"byteOffset":220824,
			"target":34962
		},
		{
			"buffer":0,
			"byteLength":147216,
			"byteOffset":441648,
			"target":34962
		},
		{
			"buffer":0,
			"byteLength":209952,
			"byteOffset":588864,
			"target":34963
		}
	],
	"buffers":[
		{
			"byteLength":798816,
			"uri":"smoothChairLowpoly.bin"
		}
	]
}
