{
	"asset":{
		"generator":"Khronos glTF Blender I/O v4.3.47",
		"version":"2.0"
	},
	"scene":0,
	"scenes":[
		{
			"name":"Scene",
			"nodes":[
				0
			]
		}
	],
	"nodes":[
		{
			"mesh":0,
			"name":"Sofa"
		}
	],
	"meshes":[
		{
			"name":"Cylinder.001",
			"primitives":[
				{
					"attributes":{
						"POSITION":0,
						"NORMAL":1,
						"TEXCOORD_0":2
					},
					"indices":3
				}
			]
		}
	],
	"accessors":[
		{
			"bufferView":0,
			"componentType":5126,
			"count":2961,
			"max":[
				0.31739675998687744,
				0.67072594165802,
				1.1346015930175781
			],
			"min":[
				-0.9850602746009827,
				-6.046835210327117e-08,
				-1.1022608280181885
			],
			"type":"VEC3"
		},
		{
			"bufferView":1,
			"componentType":5126,
			"count":2961,
			"type":"VEC3"
		},
		{
			"bufferView":2,
			"componentType":5126,
			"count":2961,
			"type":"VEC2"
		},
		{
			"bufferView":3,
			"componentType":5123,
			"count":12066,
			"type":"SCALAR"
		}
	],
	"bufferViews":[
		{
			"buffer":0,
			"byteLength":35532,
			"byteOffset":0,
			"target":34962
		},
		{
			"buffer":0,
			"byteLength":35532,
			"byteOffset":35532,
			"target":34962
		},
		{
			"buffer":0,
			"byteLength":23688,
			"byteOffset":71064,
			"target":34962
		},
		{
			"buffer":0,
			"byteLength":24132,
			"byteOffset":94752,
			"target":34963
		}
	],
	"buffers":[
		{
			"byteLength":118884,
			"uri":"SofaResizeLowpoly.bin"
		}
	]
}
